<svg version="1.1" viewBox="0.0 0.0 925.0 718.4776902887139" fill="none" stroke="none" stroke-linecap="square" stroke-miterlimit="10" xmlns:xlink="http://www.w3.org/1999/xlink" xmlns="http://www.w3.org/2000/svg"><clipPath id="p.0"><path d="m0 0l925.0 0l0 718.47766l-925.0 0l0 -718.47766z" clip-rule="nonzero"/></clipPath><g clip-path="url(#p.0)"><path fill="#000000" fill-opacity="0.0" d="m0 0l925.0 0l0 718.47766l-925.0 0z" fill-rule="evenodd"/><path fill="#000000" fill-opacity="0.0" d="m0 166.03674l960.0 0l0 180.97638l-960.0 0z" fill-rule="evenodd"/><path fill="#ff0000" d="m55.53125 294.5055q5.46875 0 9.0 -1.265625q3.53125 -1.265625 5.265625 -4.0625q1.734375 -2.8125 1.734375 -7.203125q0 -4.0 -1.875 -6.59375q-1.859375 -2.609375 -5.203125 -4.34375q-3.328125 -1.734375 -8.0 -3.125q-4.65625 -1.40625 -10.515625 -2.875q-5.734375 -1.59375 -11.0 -3.65625q-5.265625 -2.078125 -9.34375 -5.40625q-4.0625 -3.328125 -6.46875 -8.53125q-2.390625 -5.203125 -2.390625 -12.9375q0 -9.46875 4.125 -15.734375q4.140625 -6.265625 11.53125 -9.53125q7.40625 -3.265625 17.28125 -3.265625q8.53125 0 14.328125 2.46875q5.796875 2.46875 9.453125 7.734375q3.671875 5.265625 5.546875 14.0625l-5.0625 -4.53125l2.53125 -18.0l10.265625 0l0 27.0625l-12.0 0q-1.46875 -5.734375 -4.734375 -9.796875q-3.265625 -4.0625 -7.875 -6.125q-4.59375 -2.078125 -10.328125 -2.078125q-5.0625 0 -8.265625 1.34375q-3.203125 1.328125 -4.671875 3.859375q-1.453125 2.53125 -1.453125 6.265625q0 3.734375 1.65625 6.140625q1.671875 2.390625 4.796875 3.921875q3.140625 1.53125 7.53125 2.671875q4.40625 1.125 9.734375 2.46875q6.140625 1.46875 11.796875 3.46875q5.671875 2.0 10.140625 5.328125q4.46875 3.328125 7.0 8.53125q2.53125 5.203125 2.53125 12.9375q0 10.265625 -4.203125 17.328125q-4.1875 7.0625 -12.0625 10.671875q-7.859375 3.59375 -19.0625 3.59375q-8.9375 0 -16.0 -2.46875q-7.0625 -2.46875 -11.875 -8.46875q-4.796875 -6.0 -6.796875 -16.390625l5.203125 4.265625l-2.53125 21.0625l-10.796875 0l0 -30.9375l12.9375 0q2.125 7.609375 6.25 12.546875q4.140625 4.921875 9.734375 7.265625q5.609375 2.328125 12.140625 2.328125zm43.725784 -52.796875l0 -10.0l1.078125 0q3.328125 0 5.796875 -0.53125q2.46875 -0.53125 3.859375 -2.203125q1.40625 -1.671875 1.40625 -4.875l13.859375 6.9375l29.203125 0l0 10.671875l-55.203125 0zm34.53125 38.53125q0 4.671875 1.328125 7.34375q1.34375 2.65625 3.875 3.65625q2.53125 1.0 6.0 1.0q3.203125 0 5.796875 -0.46875q2.609375 -0.46875 3.546875 -0.734375l0 11.328125q-1.34375 0.53125 -3.875 1.0q-2.53125 0.46875 -5.609375 0.796875q-3.0625 0.34375 -6.515625 0.34375q-8.0 0 -14.28125 -2.0q-6.265625 -2.0 -9.9375 -7.0625q-3.65625 -5.078125 -3.65625 -14.140625l0 -47.859375l0.9375 -1.0625l0 -21.609375l22.390625 0l0 69.46875zm86.53934 -49.734375l0 21.203125q-1.0625 -0.140625 -2.875 -0.328125q-1.796875 -0.203125 -3.859375 -0.328125q-2.0625 -0.140625 -3.9375 -0.140625q-2.9375 0 -5.53125 0.40625q-2.59375 0.390625 -4.796875 1.328125q-2.203125 0.921875 -4.078125 2.328125q-1.859375 1.390625 -3.59375 3.671875l-0.390625 -5.078125q3.1875 -7.59375 6.3125 -12.921875q3.140625 -5.34375 7.203125 -8.140625q4.078125 -2.796875 10.078125 -2.796875q1.859375 0 3.328125 0.265625q1.46875 0.265625 2.140625 0.53125zm-57.59375 72.53125l0 -8.796875l0.390625 0q3.609375 0 5.609375 -1.390625q2.0 -1.40625 2.0 -5.28125l0 -42.0q0 -1.328125 -0.734375 -2.125q-0.734375 -0.796875 -2.203125 -1.265625q-1.46875 -0.46875 -3.875 -1.0l-1.1875 -0.265625l0 -9.875l28.796875 0l1.859375 20.796875l0.796875 -0.390625l0 40.921875q0 0.8125 1.40625 1.21875q1.40625 0.390625 3.53125 0.53125q2.140625 0.125 4.140625 0.125l1.453125 0l0 8.796875l-41.984375 0zm111.72557 -43.59375l0 8.65625q-6.140625 1.078125 -10.40625 2.28125q-4.265625 1.1875 -7.0 2.65625q-2.734375 1.46875 -4.265625 3.203125q-1.53125 1.734375 -2.203125 3.796875q-0.65625 2.0625 -0.65625 4.46875q0 3.328125 1.0625 5.40625q1.0625 2.0625 3.125 3.0q2.078125 0.921875 4.875 0.921875q2.9375 0 5.390625 -1.328125q2.46875 -1.328125 4.9375 -4.265625q2.46875 -2.9375 5.0 -7.46875l0.796875 6.9375q-2.65625 5.734375 -6.0625 9.46875q-3.390625 3.71875 -7.796875 5.53125q-4.40625 1.796875 -10.40625 1.796875q-7.328125 0 -12.390625 -2.0625q-5.0625 -2.078125 -7.671875 -6.265625q-2.59375 -4.203125 -2.59375 -10.609375q0 -5.734375 2.53125 -9.859375q2.53125 -4.140625 8.0625 -7.140625q5.53125 -3.0 14.265625 -5.1875q8.734375 -2.203125 21.40625 -3.9375zm0.53125 43.59375l-1.59375 -14.671875l-0.9375 0.140625l0 -38.796875q0 -3.0625 -0.9375 -5.203125q-0.9375 -2.140625 -3.265625 -3.140625q-2.328125 -1.0 -6.734375 -1.0q-6.125 0 -10.203125 1.671875q-4.0625 1.671875 -5.65625 3.796875q-0.9375 -0.796875 -1.015625 -1.859375q-0.0625 -1.0625 0.734375 -2.125q0.8125 -1.078125 2.28125 -1.8125q1.46875 -0.734375 3.734375 -0.734375l0 15.46875l-18.9375 0l0 -16.9375q2.125 -1.328125 6.25 -3.25q4.140625 -1.9375 10.40625 -3.46875q6.28125 -1.546875 14.671875 -1.546875q7.203125 0 13.0625 1.34375q5.875 1.328125 10.0 4.0625q4.140625 2.734375 6.328125 7.0625q2.203125 4.328125 2.203125 10.203125l0 36.671875q0 1.453125 0.796875 2.265625q0.8125 0.796875 2.34375 1.203125q1.53125 0.390625 3.9375 0.796875l0.796875 0.265625l0 9.59375l-28.265625 0zm93.72595 -56.265625l-3.859375 -0.40625l15.0625 57.078125l23.328125 0l15.34375 -56.0q0.796875 -2.53125 1.921875 -4.0q1.140625 -1.46875 2.796875 -2.125q1.671875 -0.671875 3.8125 -0.671875l0.53125 0l0 -9.609375l-28.140625 0l0 9.328125l0.53125 0q2.265625 0 4.0625 0.40625q1.8125 0.40625 2.9375 1.078125q1.140625 0.65625 1.140625 1.328125l-12.9375 49.859375l3.734375 0.53125l-16.65625 -62.53125l-19.734375 0l-17.203125 62.140625l3.859375 0.390625l-12.796875 -52.0q0 -0.53125 1.203125 -0.71875q1.203125 -0.203125 3.203125 -0.34375q2.0 -0.140625 4.125 -0.140625l0.671875 0l0 -9.328125l-40.125 0l0 9.609375l0.65625 0q2.265625 0 3.859375 0.53125q1.609375 0.53125 2.734375 1.796875q1.140625 1.265625 1.8125 3.671875l14.921875 56.796875l23.34375 0l15.859375 -56.671875zm116.93472 57.734375q-6.796875 0 -11.796875 -2.203125q-5.0 -2.203125 -8.609375 -6.328125q-3.59375 -4.140625 -6.390625 -10.140625l0.53125 -11.328125q3.46875 5.46875 6.390625 9.265625q2.9375 3.796875 6.140625 5.875q3.203125 2.0625 7.46875 2.0625q3.859375 0 6.65625 -1.59375q2.8125 -1.609375 4.609375 -4.875q1.796875 -3.265625 2.65625 -7.9375q0.875 -4.671875 0.875 -10.9375q0 -6.0 -0.734375 -10.453125q-0.734375 -4.46875 -2.40625 -7.46875q-1.65625 -3.0 -4.265625 -4.46875q-2.59375 -1.46875 -6.328125 -1.46875q-4.140625 0 -7.40625 1.875q-3.265625 1.859375 -6.53125 5.921875q-3.265625 4.0625 -7.265625 10.609375l0 -9.734375q3.609375 -7.078125 7.46875 -11.875q3.875 -4.796875 8.796875 -7.1875q4.9375 -2.40625 11.609375 -2.40625q10.0 0 16.921875 4.609375q6.9375 4.59375 10.53125 12.859375q3.609375 8.265625 3.609375 19.1875q0 10.9375 -3.9375 19.609375q-3.9375 8.65625 -11.203125 13.59375q-7.265625 4.9375 -17.390625 4.9375zm-44.9375 -88.125q0 -1.34375 -0.734375 -2.140625q-0.734375 -0.796875 -2.203125 -1.328125q-1.453125 -0.53125 -3.859375 -0.9375l-1.203125 -0.265625l0 -9.734375l31.46875 0l0 84.65625l-1.734375 0.671875l-7.59375 17.0625l-14.140625 0l0 -87.984375zm110.65784 51.0625q0 7.0625 1.265625 12.0q1.28125 4.921875 3.734375 8.0q2.46875 3.0625 6.203125 4.46875q3.734375 1.390625 8.671875 1.390625q5.0625 0 8.71875 -1.59375q3.671875 -1.609375 6.40625 -4.34375q2.734375 -2.734375 4.734375 -6.0625l8.9375 6.265625q-2.796875 5.328125 -7.203125 9.203125q-4.390625 3.859375 -10.390625 5.859375q-6.0 2.0 -14.140625 2.0q-12.265625 0 -21.265625 -4.265625q-9.0 -4.265625 -13.9375 -12.59375q-4.921875 -8.328125 -4.921875 -20.203125q0 -11.46875 4.734375 -20.0q4.734375 -8.53125 13.265625 -13.265625q8.53125 -4.734375 19.59375 -4.734375q8.9375 0 15.46875 2.671875q6.53125 2.671875 10.859375 7.875q4.34375 5.1875 6.53125 13.0q2.203125 7.796875 2.34375 18.1875l-55.203125 0l0 -9.46875l36.265625 0l-2.796875 3.734375q-0.140625 -7.59375 -0.9375 -12.53125q-0.796875 -4.9375 -2.265625 -7.734375q-1.46875 -2.796875 -3.9375 -3.921875q-2.46875 -1.140625 -5.921875 -1.140625q-3.46875 0 -6.203125 1.40625q-2.734375 1.390625 -4.671875 4.53125q-1.9375 3.125 -2.9375 8.390625q-1.0 5.265625 -1.0 12.875zm116.13849 -36.9375l0 21.203125q-1.0625 -0.140625 -2.875 -0.328125q-1.796875 -0.203125 -3.859375 -0.328125q-2.0625 -0.140625 -3.9375 -0.140625q-2.9375 0 -5.53125 0.40625q-2.59375 0.390625 -4.796875 1.328125q-2.203125 0.921875 -4.078125 2.328125q-1.859375 1.390625 -3.59375 3.671875l-0.390625 -5.078125q3.1875 -7.59375 6.3125 -12.921875q3.140625 -5.34375 7.203125 -8.140625q4.078125 -2.796875 10.078125 -2.796875q1.859375 0 3.328125 0.265625q1.46875 0.265625 2.140625 0.53125zm-57.59375 72.53125l0 -8.796875l0.390625 0q3.609375 0 5.609375 -1.390625q2.0 -1.40625 2.0 -5.28125l0 -42.0q0 -1.328125 -0.734375 -2.125q-0.734375 -0.796875 -2.203125 -1.265625q-1.46875 -0.46875 -3.875 -1.0l-1.1875 -0.265625l0 -9.875l28.796875 0l1.859375 20.796875l0.796875 -0.390625l0 40.921875q0 0.8125 1.40625 1.21875q1.40625 0.390625 3.53125 0.53125q2.140625 0.125 4.140625 0.125l1.453125 0l0 8.796875l-41.984375 0zm123.72455 -72.53125l0 21.203125q-1.0625 -0.140625 -2.875 -0.328125q-1.796875 -0.203125 -3.859375 -0.328125q-2.0625 -0.140625 -3.9375 -0.140625q-2.9375 0 -5.53125 0.40625q-2.59375 0.390625 -4.796875 1.328125q-2.203125 0.921875 -4.078125 2.328125q-1.859375 1.390625 -3.59375 3.671875l-0.390625 -5.078125q3.1875 -7.59375 6.3125 -12.921875q3.140625 -5.34375 7.203125 -8.140625q4.078125 -2.796875 10.078125 -2.796875q1.859375 0 3.328125 0.265625q1.46875 0.265625 2.140625 0.53125zm-57.59375 72.53125l0 -8.796875l0.390625 0q3.609375 0 5.609375 -1.390625q2.0 -1.40625 2.0 -5.28125l0 -42.0q0 -1.328125 -0.734375 -2.125q-0.734375 -0.796875 -2.203125 -1.265625q-1.46875 -0.46875 -3.875 -1.0l-1.1875 -0.265625l0 -9.875l28.796875 0l1.859375 20.796875l0.796875 -0.390625l0 40.921875q0 0.8125 1.40625 1.21875q1.40625 0.390625 3.53125 0.53125q2.140625 0.125 4.140625 0.125l1.453125 0l0 8.796875l-41.984375 0zm115.86096 -13.734375l-6.140625 10.796875l-7.59375 9.734375l-28.140625 -63.734375q-0.921875 -2.125 -2.0 -3.328125q-1.0625 -1.203125 -2.59375 -1.59375q-1.53125 -0.40625 -3.796875 -0.40625l-0.796875 0l0 -9.734375l40.53125 0l0 9.46875l-0.671875 0q-2.140625 0 -4.140625 0.078125q-2.0 0.0625 -3.203125 0.265625q-1.1875 0.1875 -1.1875 0.71875l19.734375 47.734375zm0 11.46875q-4.0 9.203125 -7.8125 15.734375q-3.796875 6.53125 -7.734375 10.59375q-3.921875 4.0625 -8.65625 5.921875q-4.734375 1.875 -10.875 1.875q-4.390625 0 -7.921875 -0.875q-3.53125 -0.859375 -5.140625 -1.921875l0 -16.125q0.53125 0.125 2.65625 0.859375q2.140625 0.734375 5.34375 1.390625q3.203125 0.671875 6.671875 0.671875q3.734375 0 6.734375 -0.9375q3.0 -0.921875 5.59375 -3.265625q2.609375 -2.328125 4.9375 -6.46875q2.328125 -4.125 4.59375 -10.390625l3.734375 -5.59375l20.9375 -49.0625q0 -0.8125 -1.203125 -1.40625q-1.203125 -0.59375 -3.078125 -0.921875q-1.859375 -0.34375 -4.125 -0.34375l-0.65625 0l0 -9.46875l28.65625 0l0 9.734375l-0.65625 0q-2.140625 0 -3.671875 0.609375q-1.53125 0.59375 -2.734375 2.0q-1.203125 1.390625 -2.40625 3.921875l-23.1875 53.46875z" fill-rule="nonzero"/><path fill="#000000" fill-opacity="0.0" d="m0 330.47507l960.0 0l0 180.97638l-960.0 0z" fill-rule="evenodd"/><path fill="#ff9900" d="m48.46875 383.47507l0 70.9375q0 0.921875 0.859375 1.59375q0.875 0.671875 2.265625 0.9375q1.40625 0.265625 3.140625 0.40625q1.734375 0.125 3.59375 0.125l2.40625 0l0 10.0l-46.671875 0l0 -10.0l1.46875 0q3.609375 0 5.9375 -0.921875q2.328125 -0.9375 2.328125 -3.875l0 -65.0625q0 -2.9375 -2.328125 -3.859375q-2.328125 -0.9375 -5.9375 -0.9375l-1.46875 0l0 -10.0l77.203125 0l0 26.921875l-11.734375 0l-1.203125 -10.390625q-0.265625 -2.40625 -1.875 -3.671875q-1.59375 -1.265625 -4.59375 -1.734375q-3.0 -0.46875 -7.390625 -0.46875l-16.0 0zm-2.9375 32.140625q5.734375 -0.40625 11.328125 -0.734375q5.609375 -0.34375 11.203125 -0.671875q5.609375 -0.328125 11.203125 -0.734375l0 13.734375q-5.59375 -0.40625 -11.203125 -0.734375q-5.59375 -0.328125 -11.203125 -0.65625q-5.59375 -0.34375 -11.328125 -0.734375l0 -9.46875zm129.06432 16.0q0 11.453125 -4.734375 19.859375q-4.734375 8.40625 -13.609375 13.0q-8.859375 4.59375 -21.25 4.59375q-12.546875 0 -21.40625 -4.59375q-8.859375 -4.59375 -13.59375 -13.0q-4.734375 -8.40625 -4.734375 -19.859375q0 -8.671875 2.65625 -15.59375q2.671875 -6.9375 7.875 -11.875q5.203125 -4.9375 12.53125 -7.53125q7.328125 -2.609375 16.671875 -2.609375q9.328125 0 16.59375 2.609375q7.265625 2.59375 12.46875 7.53125q5.203125 4.9375 7.859375 11.875q2.671875 6.921875 2.671875 15.59375zm-55.203125 0q0 9.1875 1.59375 15.125q1.609375 5.9375 5.078125 8.671875q3.46875 2.734375 8.9375 2.734375q5.453125 0 8.859375 -2.734375q3.40625 -2.734375 5.0 -8.671875q1.59375 -5.9375 1.59375 -15.125q0 -9.203125 -1.59375 -15.0625q-1.59375 -5.875 -5.0 -8.609375q-3.40625 -2.734375 -8.859375 -2.734375q-5.46875 0 -8.9375 2.734375q-3.46875 2.734375 -5.078125 8.609375q-1.59375 5.859375 -1.59375 15.0625zm94.80594 -36.140625l0 50.53125q0 2.9375 0.71875 5.0q0.734375 2.0625 2.46875 3.0625q1.734375 1.0 4.53125 1.0q3.203125 0 6.265625 -1.65625q3.078125 -1.671875 6.203125 -5.203125q3.140625 -3.53125 6.34375 -9.0l-0.265625 10.671875q-3.078125 5.859375 -7.40625 10.125q-4.328125 4.265625 -9.59375 6.53125q-5.265625 2.265625 -11.140625 2.265625q-6.796875 0 -11.59375 -2.453125q-4.796875 -2.46875 -7.34375 -7.40625q-2.53125 -4.9375 -2.53125 -11.875l0 -37.0625q0 -2.125 -1.671875 -2.984375q-1.65625 -0.875 -5.25 -1.40625l-1.609375 -0.265625l0 -9.875l31.875 0zm46.656235 0l0 57.875q0 1.453125 0.796875 2.265625q0.8125 0.796875 2.40625 1.203125q1.59375 0.390625 3.859375 0.796875l0.9375 0.265625l0 9.59375l-28.656235 0l-1.875 -16.53125l-0.9375 -0.796875l0 -40.140625q0 -2.125 -2.140625 -3.0625q-2.125 -0.9375 -5.59375 -1.328125l-2.390625 -0.40625l0 -9.734375l33.593735 0zm15.60791 72.0l0 -8.796875l0.390625 0q2.40625 0 4.0625 -0.59375q1.671875 -0.609375 2.609375 -2.078125q0.9375 -1.46875 0.9375 -4.0l0 -42.0q0 -1.46875 -0.734375 -2.1875q-0.734375 -0.734375 -2.203125 -1.203125q-1.46875 -0.46875 -3.875 -1.0l-1.1875 -0.265625l0 -9.875l28.921875 0l1.609375 16.265625l0.921875 0.40625l0 45.328125q0 0.40625 1.0625 0.671875q1.078125 0.265625 2.546875 0.40625q1.46875 0.125 2.65625 0.125l0.546875 0l0 8.796875l-38.265625 0zm86.65625 0l-38.265625 0l0 -8.796875l0.40625 0q1.328125 0 2.796875 -0.0625q1.46875 -0.078125 2.53125 -0.40625q1.0625 -0.328125 1.0625 -0.734375l0 -40.796875q0 -2.9375 -0.734375 -4.9375q-0.734375 -2.0 -2.46875 -3.0q-1.71875 -1.0 -4.65625 -1.0q-3.203125 0 -6.40625 1.8125q-3.203125 1.796875 -6.34375 5.265625q-3.125 3.453125 -6.453125 8.921875l0.40625 -10.53125q2.921875 -5.859375 7.25 -10.125q4.34375 -4.265625 9.734375 -6.671875q5.40625 -2.40625 11.40625 -2.40625q6.9375 0 11.734375 2.46875q4.796875 2.46875 7.390625 7.34375q2.609375 4.859375 2.609375 12.0625l0 36.125q0 2.53125 0.9375 4.0q0.9375 1.46875 2.59375 2.078125q1.671875 0.59375 4.0625 0.59375l0.40625 0l0 8.796875zm85.46515 -14.125q0 2.125 1.796875 2.921875q1.796875 0.796875 5.265625 1.34375l0.9375 0.265625l0 9.59375l-28.671875 0l-1.859375 -16.265625l-0.9375 1.203125l0 -71.59375q0 -1.34375 -0.796875 -2.140625q-0.796875 -0.796875 -2.40625 -1.265625q-1.59375 -0.46875 -3.859375 -1.0l-1.203125 -0.265625l0 -9.734375l31.734375 0l0 86.9375zm-45.0625 -59.203125q6.53125 0 11.453125 2.34375q4.9375 2.328125 8.671875 6.859375q3.734375 4.53125 6.40625 10.921875l-0.140625 9.609375q-3.59375 -5.734375 -6.53125 -9.46875q-2.9375 -3.734375 -6.078125 -5.59375q-3.125 -1.875 -7.390625 -1.875q-3.859375 0 -6.65625 1.609375q-2.796875 1.59375 -4.609375 4.796875q-1.796875 3.1875 -2.671875 7.921875q-0.859375 4.734375 -0.859375 11.0q0 6.0 0.734375 10.46875q0.734375 4.46875 2.390625 7.46875q1.671875 3.0 4.265625 4.46875q2.609375 1.46875 6.34375 1.46875q4.140625 0 7.40625 -1.859375q3.265625 -1.875 6.53125 -6.0q3.265625 -4.140625 7.125 -10.8125l0.140625 9.875q-3.203125 6.796875 -7.078125 11.671875q-3.859375 4.859375 -8.859375 7.390625q-5.0 2.53125 -11.796875 2.53125q-10.0 0 -17.0 -4.59375q-7.0 -4.609375 -10.671875 -12.875q-3.65625 -8.265625 -3.65625 -19.203125q0 -11.0625 3.921875 -19.65625q3.9375 -8.609375 11.265625 -13.53125q7.34375 -4.9375 17.34375 -4.9375zm107.7287 29.734375l0 8.65625q-6.140625 1.078125 -10.40625 2.28125q-4.265625 1.1875 -7.0 2.65625q-2.734375 1.46875 -4.265625 3.203125q-1.53125 1.734375 -2.203125 3.796875q-0.65625 2.0625 -0.65625 4.46875q0 3.328125 1.0625 5.40625q1.0625 2.0625 3.125 3.0q2.078125 0.921875 4.875 0.921875q2.9375 0 5.390625 -1.328125q2.46875 -1.328125 4.9375 -4.265625q2.46875 -2.9375 5.0 -7.46875l0.796875 6.9375q-2.65625 5.734375 -6.0625 9.46875q-3.390625 3.71875 -7.796875 5.53125q-4.40625 1.796875 -10.40625 1.796875q-7.328125 0 -12.390625 -2.0625q-5.0625 -2.078125 -7.671875 -6.265625q-2.59375 -4.203125 -2.59375 -10.609375q0 -5.734375 2.53125 -9.859375q2.53125 -4.140625 8.0625 -7.140625q5.53125 -3.0 14.265625 -5.1875q8.734375 -2.203125 21.40625 -3.9375zm0.53125 43.59375l-1.59375 -14.671875l-0.9375 0.140625l0 -38.796875q0 -3.0625 -0.9375 -5.203125q-0.9375 -2.140625 -3.265625 -3.140625q-2.328125 -1.0 -6.734375 -1.0q-6.125 0 -10.203125 1.671875q-4.0625 1.671875 -5.65625 3.796875q-0.9375 -0.796875 -1.015625 -1.859375q-0.0625 -1.0625 0.734375 -2.125q0.8125 -1.078125 2.28125 -1.8125q1.46875 -0.734375 3.734375 -0.734375l0 15.46875l-18.9375 0l0 -16.9375q2.125 -1.328125 6.25 -3.25q4.140625 -1.9375 10.40625 -3.46875q6.28125 -1.546875 14.671875 -1.546875q7.203125 0 13.0625 1.34375q5.875 1.328125 10.0 4.0625q4.140625 2.734375 6.328125 7.0625q2.203125 4.328125 2.203125 10.203125l0 36.671875q0 1.453125 0.796875 2.265625q0.8125 0.796875 2.34375 1.203125q1.53125 0.390625 3.9375 0.796875l0.796875 0.265625l0 9.59375l-28.265625 0zm31.324951 -61.328125l0 -10.0l1.078125 0q3.328125 0 5.796875 -0.53125q2.46875 -0.53125 3.859375 -2.203125q1.40625 -1.671875 1.40625 -4.875l13.859375 6.9375l29.203125 0l0 10.671875l-55.203125 0zm34.53125 38.53125q0 4.671875 1.328125 7.34375q1.34375 2.65625 3.875 3.65625q2.53125 1.0 6.0 1.0q3.203125 0 5.796875 -0.46875q2.609375 -0.46875 3.546875 -0.734375l0 11.328125q-1.34375 0.53125 -3.875 1.0q-2.53125 0.46875 -5.609375 0.796875q-3.0625 0.34375 -6.515625 0.34375q-8.0 0 -14.28125 -2.0q-6.265625 -2.0 -9.9375 -7.0625q-3.65625 -5.078125 -3.65625 -14.140625l0 -47.859375l0.9375 -1.0625l0 -21.609375l22.390625 0l0 69.46875zm48.008057 -58.53125q-6.140625 0 -9.734375 -2.9375q-3.59375 -2.9375 -3.59375 -8.53125q0 -5.59375 3.59375 -8.453125q3.59375 -2.875 9.734375 -2.875q6.125 0 9.71875 2.875q3.609375 2.859375 3.609375 8.453125q0 5.59375 -3.609375 8.53125q-3.59375 2.9375 -9.71875 2.9375zm12.390625 9.328125l0 56.796875q0 3.734375 2.0625 5.078125q2.078125 1.328125 5.671875 1.328125l0.265625 0l0 8.796875l-39.328125 0l0 -8.796875l0.265625 0q3.609375 0 5.671875 -1.328125q2.0625 -1.34375 2.0625 -5.078125l0 -42.265625q0 -2.125 -1.671875 -2.921875q-1.65625 -0.8125 -5.265625 -1.46875l-1.1875 -0.265625l0 -9.875l31.453125 0zm95.33777 36.140625q0 11.453125 -4.734375 19.859375q-4.734375 8.40625 -13.609375 13.0q-8.859375 4.59375 -21.25 4.59375q-12.546875 0 -21.40625 -4.59375q-8.859375 -4.59375 -13.59375 -13.0q-4.734375 -8.40625 -4.734375 -19.859375q0 -8.671875 2.65625 -15.59375q2.671875 -6.9375 7.875 -11.875q5.203125 -4.9375 12.53125 -7.53125q7.328125 -2.609375 16.671875 -2.609375q9.328125 0 16.59375 2.609375q7.265625 2.59375 12.46875 7.53125q5.203125 4.9375 7.859375 11.875q2.671875 6.921875 2.671875 15.59375zm-55.203125 0q0 9.1875 1.59375 15.125q1.609375 5.9375 5.078125 8.671875q3.46875 2.734375 8.9375 2.734375q5.453125 0 8.859375 -2.734375q3.40625 -2.734375 5.0 -8.671875q1.59375 -5.9375 1.59375 -15.125q0 -9.203125 -1.59375 -15.0625q-1.59375 -5.875 -5.0 -8.609375q-3.40625 -2.734375 -8.859375 -2.734375q-5.46875 0 -8.9375 2.734375q-3.46875 2.734375 -5.078125 8.609375q-1.59375 5.859375 -1.59375 15.0625zm64.54028 35.859375l0 -8.796875l0.390625 0q2.40625 0 4.0625 -0.59375q1.671875 -0.609375 2.609375 -2.078125q0.9375 -1.46875 0.9375 -4.0l0 -42.0q0 -1.46875 -0.734375 -2.1875q-0.734375 -0.734375 -2.203125 -1.203125q-1.46875 -0.46875 -3.875 -1.0l-1.1875 -0.265625l0 -9.875l28.921875 0l1.609375 16.265625l0.921875 0.40625l0 45.328125q0 0.40625 1.0625 0.671875q1.078125 0.265625 2.546875 0.40625q1.46875 0.125 2.65625 0.125l0.546875 0l0 8.796875l-38.265625 0zm86.65625 0l-38.265625 0l0 -8.796875l0.40625 0q1.328125 0 2.796875 -0.0625q1.46875 -0.078125 2.53125 -0.40625q1.0625 -0.328125 1.0625 -0.734375l0 -40.796875q0 -2.9375 -0.734375 -4.9375q-0.734375 -2.0 -2.46875 -3.0q-1.71875 -1.0 -4.65625 -1.0q-3.203125 0 -6.40625 1.8125q-3.203125 1.796875 -6.34375 5.265625q-3.125 3.453125 -6.453125 8.921875l0.40625 -10.53125q2.921875 -5.859375 7.25 -10.125q4.34375 -4.265625 9.734375 -6.671875q5.40625 -2.40625 11.40625 -2.40625q6.9375 0 11.734375 2.46875q4.796875 2.46875 7.390625 7.34375q2.609375 4.859375 2.609375 12.0625l0 36.125q0 2.53125 0.9375 4.0q0.9375 1.46875 2.59375 2.078125q1.671875 0.59375 4.0625 0.59375l0.40625 0l0 8.796875zm51.199524 -17.859375q0 -2.671875 -1.40625 -4.40625q-1.390625 -1.734375 -3.796875 -2.796875q-2.390625 -1.0625 -5.46875 -1.796875q-3.0625 -0.734375 -6.390625 -1.546875q-4.53125 -1.0625 -8.9375 -2.453125q-4.40625 -1.40625 -8.0 -3.796875q-3.59375 -2.40625 -5.734375 -6.265625q-2.125 -3.875 -2.125 -9.75q0 -7.859375 3.921875 -12.859375q3.9375 -5.0 11.0625 -7.53125q7.140625 -2.53125 16.734375 -2.53125q7.734375 0 13.40625 0.9375q5.671875 0.921875 9.203125 2.125q3.53125 1.203125 4.859375 2.0l0 16.265625l-16.796875 0l0 -12.796875q2.0 -0.265625 3.0625 0.265625q1.078125 0.53125 1.46875 1.40625q0.40625 0.859375 0.328125 1.9375q-0.0625 1.0625 -0.328125 2.125q-1.59375 -1.34375 -3.859375 -2.203125q-2.265625 -0.859375 -5.078125 -1.328125q-2.796875 -0.46875 -6.265625 -0.46875q-6.0 0 -8.859375 1.9375q-2.859375 1.921875 -2.859375 5.796875q0 2.53125 1.328125 4.140625q1.328125 1.59375 3.796875 2.65625q2.46875 1.0625 5.671875 1.875q3.203125 0.796875 6.796875 1.59375q4.671875 1.0625 9.203125 2.53125q4.53125 1.46875 8.265625 3.9375q3.734375 2.453125 6.0 6.328125q2.265625 3.859375 2.265625 9.59375q0 8.140625 -3.8125 13.609375q-3.796875 5.46875 -11.53125 8.203125q-7.71875 2.71875 -19.328125 2.71875q-7.46875 0 -13.46875 -1.0q-6.0 -1.0 -10.203125 -2.453125q-4.1875 -1.46875 -6.453125 -2.8125l0 -17.59375l17.1875 0l0 17.0625q-2.53125 -0.9375 -3.9375 -2.203125q-1.390625 -1.265625 -1.859375 -2.59375q-0.46875 -1.328125 -0.140625 -2.1875q0.34375 -0.875 1.28125 -0.875q1.734375 1.203125 4.328125 2.203125q2.609375 1.0 6.0 1.59375q3.40625 0.59375 7.40625 0.59375q4.53125 0 7.390625 -0.921875q2.875 -0.9375 4.265625 -3.0q1.40625 -2.078125 1.40625 -5.265625z" fill-rule="nonzero"/></g></svg>