<svg version="1.1" viewBox="0.0 0.0 804.4435695538058 317.03674540682414" fill="none" stroke="none" stroke-linecap="square" stroke-miterlimit="10" xmlns:xlink="http://www.w3.org/1999/xlink" xmlns="http://www.w3.org/2000/svg"><clipPath id="p.0"><path d="m0 0l804.44354 0l0 317.03674l-804.44354 0l0 -317.03674z" clip-rule="nonzero"/></clipPath><g clip-path="url(#p.0)"><path fill="#000000" fill-opacity="0.0" d="m0 0l804.44354 0l0 317.03674l-804.44354 0z" fill-rule="evenodd"/><path fill="#000000" fill-opacity="0.0" d="m0 -16.0l203.55905 0l0 374.89764l-203.55905 0z" fill-rule="evenodd"/><path fill="#ff0000" d="m190.5625 243.50626q0 4.6875 3.953125 6.453125q3.96875 1.765625 11.59375 2.9375l2.0625 0.578125l0 21.125l-63.0625 0l-4.109375 -35.78125l-2.0625 2.640625l0 -157.51562q0 -2.9375 -1.765625 -4.6875q-1.75 -1.765625 -5.265625 -2.796875q-3.515625 -1.03125 -8.515625 -2.203125l-2.625 -0.59375l0 -21.40625l69.796875 0l0 191.25zm-99.140625 -130.23438q14.375 0 25.21875 5.140625q10.859375 5.125 19.078125 15.09375q8.21875 9.96875 14.078125 24.0625l-0.296875 21.109375q-7.921875 -12.609375 -14.375 -20.8125q-6.453125 -8.21875 -13.34375 -12.328125q-6.890625 -4.109375 -16.28125 -4.109375q-8.5 0 -14.671875 3.53125q-6.15625 3.515625 -10.109375 10.5625q-3.953125 7.03125 -5.859375 17.453125q-1.90625 10.40625 -1.90625 24.1875q0 13.203125 1.609375 23.03125q1.609375 9.828125 5.265625 16.421875q3.671875 6.59375 9.390625 9.828125q5.71875 3.21875 13.9375 3.21875q9.09375 0 16.28125 -4.09375q7.1875 -4.109375 14.375 -13.203125q7.1875 -9.09375 15.6875 -23.765625l0.296875 21.703125q-7.046875 14.96875 -15.546875 25.671875q-8.5 10.703125 -19.5 16.28125q-11.0 5.578125 -25.96875 5.578125q-22.0 0 -37.40625 -10.125q-15.390625 -10.125 -23.453125 -28.3125q-8.0625 -18.1875 -8.0625 -42.234375q0 -24.34375 8.640625 -43.265625q8.65625 -18.921875 24.78125 -29.765625q16.140625 -10.859375 38.140625 -10.859375z" fill-rule="nonzero"/><path fill="#000000" fill-opacity="0.0" d="m209.95538 -16.0l221.16534 0l0 374.89764l-221.16534 0z" fill-rule="evenodd"/><path fill="#ff9900" d="m404.346 195.69376q0 25.234375 -10.421875 43.71875q-10.40625 18.46875 -29.921875 28.59375q-19.5 10.109375 -46.78125 10.109375q-27.578125 0 -47.09375 -10.109375q-19.5 -10.125 -29.90625 -28.59375q-10.40625 -18.484375 -10.40625 -43.71875q0 -19.0625 5.859375 -34.3125q5.875 -15.265625 17.3125 -26.109375q11.4375 -10.859375 27.5625 -16.578125q16.140625 -5.71875 36.671875 -5.71875q20.53125 0 36.515625 5.71875q15.984375 5.71875 27.421875 16.578125q11.453125 10.84375 17.3125 26.109375q5.875 15.25 5.875 34.3125zm-121.4375 0q0 20.234375 3.515625 33.296875q3.515625 13.046875 11.140625 19.0625q7.625 6.015625 19.65625 6.015625q12.03125 0 19.5 -6.015625q7.484375 -6.015625 11.0 -19.0625q3.53125 -13.0625 3.53125 -33.296875q0 -20.234375 -3.53125 -33.140625q-3.515625 -12.90625 -11.0 -18.921875q-7.46875 -6.015625 -19.5 -6.015625q-12.03125 0 -19.65625 6.015625q-7.625 6.015625 -11.140625 18.921875q-3.515625 12.90625 -3.515625 33.140625z" fill-rule="nonzero"/><path fill="#000000" fill-opacity="0.0" d="m416.0 -16.0l203.55908 0l0 374.89764l-203.55908 0z" fill-rule="evenodd"/><path fill="#ff9900" d="m531.1875 252.89688q10.265625 0 18.03125 -4.109375q7.78125 -4.109375 13.640625 -10.84375q5.875 -6.75 9.984375 -13.796875l18.765625 12.609375q-5.578125 12.328125 -15.109375 21.71875q-9.53125 9.375 -22.734375 14.375q-13.1875 4.984375 -30.203125 4.984375q-26.109375 0 -45.90625 -9.53125q-19.796875 -9.546875 -30.796875 -28.015625q-11.0 -18.484375 -11.0 -44.890625q0 -26.390625 10.703125 -44.71875q10.703125 -18.34375 30.640625 -27.875q19.953125 -9.53125 47.828125 -9.53125q16.71875 0 29.171875 2.34375q12.46875 2.34375 20.6875 5.421875q8.21875 3.078125 12.03125 5.4375l0 48.6875l-40.1875 0l0 -43.125q3.8125 0 6.15625 1.90625q2.34375 1.90625 3.375 4.703125q1.03125 2.78125 0.875 5.421875q-0.140625 2.640625 -0.734375 4.109375q-4.984375 -4.703125 -12.171875 -7.625q-7.1875 -2.9375 -16.859375 -2.9375q-13.5 0 -22.015625 6.3125q-8.5 6.296875 -12.453125 19.203125q-3.953125 12.90625 -3.953125 32.265625q0 14.96875 2.484375 25.828125q2.5 10.84375 7.625 17.890625q5.140625 7.03125 13.203125 10.40625q8.0625 3.375 18.921875 3.375z" fill-rule="nonzero"/><path fill="#000000" fill-opacity="0.0" d="m601.9554 -16.0l221.16534 0l0 374.89764l-221.16534 0z" fill-rule="evenodd"/><path fill="#ff9900" d="m717.1429 235.2875q0 -5.859375 -3.078125 -9.671875q-3.078125 -3.8125 -8.359375 -6.15625q-5.28125 -2.359375 -12.03125 -3.96875q-6.75 -1.609375 -14.078125 -3.375q-9.96875 -2.34375 -19.65625 -5.421875q-9.671875 -3.078125 -17.59375 -8.359375q-7.921875 -5.28125 -12.625 -13.78125q-4.6875 -8.515625 -4.6875 -21.421875q0 -17.296875 8.65625 -28.296875q8.65625 -11.0 24.34375 -16.578125q15.6875 -5.578125 36.8125 -5.578125q17.015625 0 29.484375 2.0625q12.46875 2.046875 20.234375 4.6875q7.78125 2.640625 10.703125 4.40625l0 35.78125l-36.953125 0l0 -28.15625q4.40625 -0.59375 6.75 0.578125q2.34375 1.171875 3.21875 3.078125q0.890625 1.90625 0.734375 4.265625q-0.140625 2.34375 -0.734375 4.6875q-3.515625 -2.9375 -8.5 -4.84375q-4.984375 -1.90625 -11.15625 -2.921875q-6.15625 -1.03125 -13.78125 -1.03125q-13.203125 0 -19.515625 4.25q-6.296875 4.25 -6.296875 12.765625q0 5.5625 2.9375 9.09375q2.9375 3.515625 8.359375 5.859375q5.421875 2.34375 12.453125 4.109375q7.046875 1.765625 14.96875 3.515625q10.265625 2.34375 20.234375 5.578125q9.984375 3.21875 18.1875 8.65625q8.21875 5.421875 13.203125 13.9375q4.984375 8.5 4.984375 21.109375q0 17.890625 -8.359375 29.921875q-8.359375 12.03125 -25.375 18.046875q-17.0 6.0 -42.53125 6.0q-16.421875 0 -29.625 -2.203125q-13.203125 -2.1875 -22.4375 -5.40625q-9.234375 -3.234375 -14.21875 -6.171875l0 -38.71875l37.828125 0l0 37.546875q-5.5625 -2.0625 -8.65625 -4.84375q-3.078125 -2.78125 -4.109375 -5.71875q-1.015625 -2.9375 -0.28125 -4.84375q0.734375 -1.90625 2.78125 -1.90625q3.8125 2.640625 9.53125 4.84375q5.71875 2.203125 13.203125 3.53125q7.484375 1.3125 16.28125 1.3125q9.96875 0 16.28125 -2.046875q6.3125 -2.0625 9.390625 -6.609375q3.078125 -4.546875 3.078125 -11.59375z" fill-rule="nonzero"/></g></svg>