<svg version="1.1" viewBox="0.0 0.0 386.01574803149606 327.1023622047244" fill="none" stroke="none" stroke-linecap="square" stroke-miterlimit="10" xmlns:xlink="http://www.w3.org/1999/xlink" xmlns="http://www.w3.org/2000/svg"><clipPath id="p.0"><path d="m0 0l386.01575 0l0 327.10236l-386.01575 0l0 -327.10236z" clip-rule="nonzero"/></clipPath><g clip-path="url(#p.0)"><path fill="#000000" fill-opacity="0.0" d="m0 0l386.01575 0l0 327.10236l-386.01575 0z" fill-rule="evenodd"/><path fill="#000000" fill-opacity="0.0" d="m0 -16.0l203.55905 0l0 374.89764l-203.55905 0z" fill-rule="evenodd"/><path fill="#ff0000" d="m42.734375 242.0375l0 -143.14062q0 -6.453125 -5.140625 -8.5q-5.125 -2.0625 -12.75 -2.0625l-4.703125 0l0 -22.0l99.734375 0l0 22.0l-4.390625 0q-7.921875 0 -13.0625 2.0625q-5.125 2.046875 -5.125 8.5l0 143.14062q0 6.453125 5.125 8.515625q5.140625 2.046875 13.0625 2.046875l4.390625 0l0 22.0l-99.734375 0l0 -22.0l4.703125 0q7.625 0 12.75 -2.046875q5.140625 -2.0625 5.140625 -8.515625z" fill-rule="nonzero"/><path fill="#000000" fill-opacity="0.0" d="m129.95538 -16.0l221.16534 0l0 374.89764l-221.16534 0z" fill-rule="evenodd"/><path fill="#ff9900" d="m150.09601 88.33438l0 -22.0l105.3125 0q24.9375 0 45.3125 6.453125q20.390625 6.453125 35.203125 19.515625q14.8125 13.046875 22.875 32.40625q8.078125 19.359375 8.078125 44.875q0 25.53125 -8.078125 45.03125q-8.0625 19.5 -22.875 32.859375q-14.8125 13.34375 -35.203125 20.234375q-20.375 6.890625 -45.3125 6.890625l-105.3125 0l0 -22.0l3.53125 0q7.625 0 12.75 -2.046875q5.140625 -2.0625 5.140625 -8.515625l0 -143.14062q0 -6.15625 -5.140625 -8.359375q-5.125 -2.203125 -12.75 -2.203125l-3.53125 0zm101.203125 1.765625l-25.515625 0l0 160.73438l25.515625 0q14.078125 0 24.921875 -4.984375q10.859375 -4.984375 18.34375 -15.25q7.484375 -10.265625 11.4375 -25.515625q3.96875 -15.25 3.96875 -35.5q0 -20.234375 -3.96875 -35.1875q-3.953125 -14.96875 -11.4375 -24.796875q-7.484375 -9.828125 -18.34375 -14.65625q-10.84375 -4.84375 -24.921875 -4.84375z" fill-rule="nonzero"/></g></svg>