<svg version="1.1" viewBox="0.0 0.0 386.01574803149606 327.1023622047244" fill="none" stroke="none" stroke-linecap="square" stroke-miterlimit="10" xmlns:xlink="http://www.w3.org/1999/xlink" xmlns="http://www.w3.org/2000/svg"><clipPath id="p.0"><path d="m0 0l386.01575 0l0 327.10236l-386.01575 0l0 -327.10236z" clip-rule="nonzero"/></clipPath><g clip-path="url(#p.0)"><path fill="#000000" fill-opacity="0.0" d="m0 0l386.01575 0l0 327.10236l-386.01575 0z" fill-rule="evenodd"/><path fill="#000000" fill-opacity="0.0" d="m0 -16.0l203.55905 0l0 374.89764l-203.55905 0z" fill-rule="evenodd"/><path fill="#ff0000" d="m60.625 95.662506q-13.5 0 -21.421875 -6.453125q-7.90625 -6.453125 -7.90625 -18.765625q0 -12.3125 7.90625 -18.625q7.921875 -6.3125 21.421875 -6.3125q13.5 0 21.40625 6.3125q7.921875 6.3125 7.921875 18.625q0 12.3125 -7.921875 18.765625q-7.90625 6.453125 -21.40625 6.453125zm27.28125 20.546875l0 124.953125q0 8.21875 4.546875 11.15625q4.546875 2.921875 12.46875 2.921875l0.578125 0l0 19.359375l-86.53125 0l0 -19.359375l0.59375 0q7.921875 0 12.46875 -2.921875q4.546875 -2.9375 4.546875 -11.15625l0 -92.984375q0 -4.703125 -3.671875 -6.453125q-3.671875 -1.765625 -11.59375 -3.234375l-2.625 -0.578125l0 -21.703125l69.21875 0z" fill-rule="nonzero"/><path fill="#000000" fill-opacity="0.0" d="m129.95538 -16.0l221.16534 0l0 374.89764l-221.16534 0z" fill-rule="evenodd"/><path fill="#ff9900" d="m320.51788 243.50626q0 4.6875 3.953125 6.453125q3.96875 1.765625 11.59375 2.9375l2.0625 0.578125l0 21.125l-63.0625 0l-4.109375 -35.78125l-2.0625 2.640625l0 -157.51562q0 -2.9375 -1.765625 -4.6875q-1.75 -1.765625 -5.265625 -2.796875q-3.515625 -1.03125 -8.515625 -2.203125l-2.625 -0.59375l0 -21.40625l69.796875 0l0 191.25zm-99.140625 -130.23438q14.375 0 25.21875 5.140625q10.859375 5.125 19.078125 15.09375q8.21875 9.96875 14.078125 24.0625l-0.296875 21.109375q-7.921875 -12.609375 -14.375 -20.8125q-6.453125 -8.21875 -13.34375 -12.328125q-6.890625 -4.109375 -16.28125 -4.109375q-8.5 0 -14.671875 3.53125q-6.15625 3.515625 -10.109375 10.5625q-3.953125 7.03125 -5.859375 17.453125q-1.90625 10.40625 -1.90625 24.1875q0 13.203125 1.609375 23.03125q1.609375 9.828125 5.265625 16.421875q3.671875 6.59375 9.390625 9.828125q5.71875 3.21875 13.9375 3.21875q9.09375 0 16.28125 -4.09375q7.1875 -4.109375 14.375 -13.203125q7.1875 -9.09375 15.6875 -23.765625l0.296875 21.703125q-7.046875 14.96875 -15.546875 25.671875q-8.5 10.703125 -19.5 16.28125q-11.0 5.578125 -25.96875 5.578125q-22.0 0 -37.40625 -10.125q-15.390625 -10.125 -23.453125 -28.3125q-8.0625 -18.1875 -8.0625 -42.234375q0 -24.34375 8.640625 -43.265625q8.65625 -18.921875 24.78125 -29.765625q16.140625 -10.859375 38.140625 -10.859375z" fill-rule="nonzero"/></g></svg>